<svg xmlns="http://www.w3.org/2000/svg" width="520" height="520" viewBox="0 0 520 520">
  <g fill="none" stroke="#EAD9BC" stroke-width="2.6" stroke-linecap="round" stroke-linejoin="round" opacity="0.9">
    <!-- flower -->
    <g transform="translate(80,80)">
      <path d="M0 -22 C 14 -30 26 -14 14 -4 C 28 -2 28 16 12 14 C 18 28 0 32 -4 18 C -16 28 -28 12 -16 4 C -30 0 -26 -18 -10 -14 C -12 -28 6 -32 0 -22 Z"/>
      <circle cx="0" cy="-3" r="4"/>
    </g>
    <!-- leaf sprig -->
    <g transform="translate(300,70)">
      <path d="M0 0 C 30 -10 54 6 70 40"/>
      <path d="M18 6 C 26 -6 40 -6 46 4 C 36 12 24 12 18 6 Z"/>
      <path d="M40 22 C 50 12 64 14 68 26 C 58 32 46 30 40 22 Z"/>
    </g>
    <!-- heart -->
    <g transform="translate(440,140)">
      <path d="M0 6 C -12 -10 -34 0 -22 18 C -16 28 0 38 0 38 C 0 38 16 28 22 18 C 34 0 12 -10 0 6 Z"/>
    </g>
    <!-- sparkle / 4-point star -->
    <g transform="translate(180,200)">
      <path d="M0 -20 C 3 -6 6 -3 20 0 C 6 3 3 6 0 20 C -3 6 -6 3 -20 0 C -6 -3 -3 -6 0 -20 Z"/>
    </g>
    <!-- squiggle -->
    <g transform="translate(330,210)">
      <path d="M0 0 C 14 -16 28 16 42 0 C 56 -16 70 16 84 0"/>
    </g>
    <!-- clover -->
    <g transform="translate(70,290)">
      <path d="M0 0 C -14 -14 -32 -2 -22 14 C -8 26 0 8 0 0 Z"/>
      <path d="M0 0 C 14 -14 32 -2 22 14 C 8 26 0 8 0 0 Z"/>
      <path d="M0 0 C -8 16 6 30 16 20 C 24 10 8 6 0 0 Z"/>
      <path d="M0 0 L 2 26"/>
    </g>
    <!-- petal flower 2 -->
    <g transform="translate(420,330)">
      <path d="M0 -20 C 12 -26 22 -12 12 -4 C 24 -2 24 14 10 12 C 14 24 -2 28 -4 16 C -14 24 -26 10 -16 2 C -26 -2 -22 -18 -10 -12 C -10 -24 4 -28 0 -20 Z"/>
      <circle cx="-1" cy="-3" r="3.4"/>
    </g>
    <!-- big leaf -->
    <g transform="translate(150,400)">
      <path d="M0 0 C 4 26 26 40 54 38 C 50 12 28 -2 0 0 Z"/>
      <path d="M6 6 C 22 14 36 24 48 34"/>
    </g>
    <!-- sparkle small -->
    <g transform="translate(300,420)">
      <path d="M0 -13 C 2 -4 4 -2 13 0 C 4 2 2 4 0 13 C -2 4 -4 2 -13 0 C -4 -2 -2 -4 0 -13 Z"/>
    </g>
    <!-- squiggle 2 -->
    <g transform="translate(20,180)">
      <path d="M0 0 C 10 -12 20 12 30 0"/>
    </g>
    <!-- heart small -->
    <g transform="translate(470,460)">
      <path d="M0 4 C -8 -6 -22 0 -15 12 C -11 18 0 25 0 25 C 0 25 11 18 15 12 C 22 0 8 -6 0 4 Z"/>
    </g>
    <!-- cross/star tiny -->
    <g transform="translate(250,300)">
      <path d="M0 -10 L 0 10 M -10 0 L 10 0" />
    </g>
  </g>
</svg>
